<?xml version="1.0" encoding="UTF-8" standalone="no"?>
<!DOCTYPE svg PUBLIC "-//W3C//DTD SVG 1.1//EN"
 "http://www.w3.org/Graphics/SVG/1.1/DTD/svg11.dtd">
<!-- Generated by graphviz version 2.42.4 (0)
 -->
<!-- Title: G Pages: 1 -->
<svg width="1956pt" height="266pt"
 viewBox="0.00 0.00 1955.60 266.35" xmlns="http://www.w3.org/2000/svg" xmlns:xlink="http://www.w3.org/1999/xlink">
<g id="graph0" class="graph" transform="scale(1 1) rotate(0) translate(28.8 237.55)">
<title>G</title>
<polygon fill="white" stroke="transparent" points="-28.8,28.8 -28.8,-237.55 1926.8,-237.55 1926.8,28.8 -28.8,28.8"/>
<text text-anchor="middle" x="949" y="-187.15" font-family="Arial" font-size="22.00">Пайплайн RAG&#45;запроса</text>
<!-- request -->
<g id="node1" class="node">
<title>request</title>
<path fill="#f8f9f9" stroke="#555555" d="M180,-94C180,-94 12,-94 12,-94 6,-94 0,-88 0,-82 0,-82 0,-70 0,-70 0,-64 6,-58 12,-58 12,-58 180,-58 180,-58 186,-58 192,-64 192,-70 192,-70 192,-82 192,-82 192,-88 186,-94 180,-94"/>
<text text-anchor="middle" x="96" y="-79.2" font-family="Arial" font-size="11.00">1. POST /api/rag/chat</text>
<text text-anchor="middle" x="96" y="-67.2" font-family="Arial" font-size="11.00">question, document_id, top_k, mode</text>
</g>
<!-- controller -->
<g id="node2" class="node">
<title>controller</title>
<path fill="#f8f9f9" stroke="#555555" d="M340,-94C340,-94 251,-94 251,-94 245,-94 239,-88 239,-82 239,-82 239,-70 239,-70 239,-64 245,-58 251,-58 251,-58 340,-58 340,-58 346,-58 352,-64 352,-70 352,-70 352,-82 352,-82 352,-88 346,-94 340,-94"/>
<text text-anchor="middle" x="295.5" y="-79.2" font-family="Arial" font-size="11.00">2. ChatController</text>
<text text-anchor="middle" x="295.5" y="-67.2" font-family="Arial" font-size="11.00">валидация request</text>
</g>
<!-- request&#45;&gt;controller -->
<g id="edge1" class="edge">
<title>request&#45;&gt;controller</title>
<path fill="none" stroke="#555555" d="M192.28,-76C205.26,-76 218.33,-76 230.57,-76"/>
<polygon fill="#555555" stroke="#555555" points="230.91,-78.8 238.91,-76 230.91,-73.2 230.91,-78.8"/>
</g>
<!-- runtime -->
<g id="node3" class="node">
<title>runtime</title>
<path fill="#f8f9f9" stroke="#555555" d="M502,-94C502,-94 411,-94 411,-94 405,-94 399,-88 399,-82 399,-82 399,-70 399,-70 399,-64 405,-58 411,-58 411,-58 502,-58 502,-58 508,-58 514,-64 514,-70 514,-70 514,-82 514,-82 514,-88 508,-94 502,-94"/>
<text text-anchor="middle" x="456.5" y="-79.2" font-family="Arial" font-size="11.00">3. RagChatRuntime</text>
<text text-anchor="middle" x="456.5" y="-67.2" font-family="Arial" font-size="11.00">reset state + filters</text>
</g>
<!-- controller&#45;&gt;runtime -->
<g id="edge2" class="edge">
<title>controller&#45;&gt;runtime</title>
<path fill="none" stroke="#555555" d="M352.11,-76C364.53,-76 377.8,-76 390.55,-76"/>
<polygon fill="#555555" stroke="#555555" points="390.84,-78.8 398.84,-76 390.84,-73.2 390.84,-78.8"/>
</g>
<!-- rag -->
<g id="node4" class="node">
<title>rag</title>
<path fill="#f8f9f9" stroke="#555555" d="M696.5,-166C696.5,-166 616.5,-166 616.5,-166 610.5,-166 604.5,-160 604.5,-154 604.5,-154 604.5,-142 604.5,-142 604.5,-136 610.5,-130 616.5,-130 616.5,-130 696.5,-130 696.5,-130 702.5,-130 708.5,-136 708.5,-142 708.5,-142 708.5,-154 708.5,-154 708.5,-160 702.5,-166 696.5,-166"/>
<text text-anchor="middle" x="656.5" y="-151.2" font-family="Arial" font-size="11.00">4. DocumentRAG</text>
<text text-anchor="middle" x="656.5" y="-139.2" font-family="Arial" font-size="11.00">NeuronAI RAG</text>
</g>
<!-- runtime&#45;&gt;rag -->
<g id="edge3" class="edge">
<title>runtime&#45;&gt;rag</title>
<path fill="none" stroke="#555555" d="M507.21,-94.08C534.86,-104.13 569.41,-116.69 598.2,-127.16"/>
<polygon fill="#555555" stroke="#555555" points="597.3,-129.81 605.77,-129.92 599.21,-124.55 597.3,-129.81"/>
</g>
<!-- logger -->
<g id="node12" class="node">
<title>logger</title>
<path fill="#f8f9f9" stroke="#555555" d="M740,-94C740,-94 573,-94 573,-94 567,-94 561,-88 561,-82 561,-82 561,-70 561,-70 561,-64 567,-58 573,-58 573,-58 740,-58 740,-58 746,-58 752,-64 752,-70 752,-70 752,-82 752,-82 752,-88 746,-94 740,-94"/>
<text text-anchor="middle" x="656.5" y="-79.2" font-family="Arial" font-size="11.00">11. RagQueryLogger</text>
<text text-anchor="middle" x="656.5" y="-67.2" font-family="Arial" font-size="11.00">query, sources, tokens, cost, timings</text>
</g>
<!-- runtime&#45;&gt;logger -->
<g id="edge13" class="edge">
<title>runtime&#45;&gt;logger</title>
<path fill="none" stroke="#555555" d="M514.24,-76C526.35,-76 539.5,-76 552.75,-76"/>
<polygon fill="#555555" stroke="#555555" points="552.99,-78.8 560.99,-76 552.99,-73.2 552.99,-78.8"/>
</g>
<!-- embedq -->
<g id="node5" class="node">
<title>embedq</title>
<path fill="#f8f9f9" stroke="#555555" d="M924,-168C924,-168 832,-168 832,-168 826,-168 820,-162 820,-156 820,-156 820,-144 820,-144 820,-138 826,-132 832,-132 832,-132 924,-132 924,-132 930,-132 936,-138 936,-144 936,-144 936,-156 936,-156 936,-162 930,-168 924,-168"/>
<text text-anchor="middle" x="878" y="-147.2" font-family="Arial" font-size="11.00">5. Query embedding</text>
</g>
<!-- rag&#45;&gt;embedq -->
<g id="edge4" class="edge">
<title>rag&#45;&gt;embedq</title>
<path fill="none" stroke="#555555" d="M708.69,-148.47C739.4,-148.75 778.77,-149.1 811.71,-149.41"/>
<polygon fill="#555555" stroke="#555555" points="811.91,-152.21 819.93,-149.48 811.96,-146.61 811.91,-152.21"/>
</g>
<!-- retrieve -->
<g id="node6" class="node">
<title>retrieve</title>
<path fill="#f8f9f9" stroke="#555555" d="M1128,-169C1128,-169 1016,-169 1016,-169 1010,-169 1004,-163 1004,-157 1004,-157 1004,-145 1004,-145 1004,-139 1010,-133 1016,-133 1016,-133 1128,-133 1128,-133 1134,-133 1140,-139 1140,-145 1140,-145 1140,-157 1140,-157 1140,-163 1134,-169 1128,-169"/>
<text text-anchor="middle" x="1072" y="-154.2" font-family="Arial" font-size="11.00">6. PgVectorStore</text>
<text text-anchor="middle" x="1072" y="-142.2" font-family="Arial" font-size="11.00">vector / keyword / hybrid</text>
</g>
<!-- embedq&#45;&gt;retrieve -->
<g id="edge5" class="edge">
<title>embedq&#45;&gt;retrieve</title>
<path fill="none" stroke="#555555" d="M936.09,-150.3C954.84,-150.39 975.97,-150.51 995.85,-150.61"/>
<polygon fill="#555555" stroke="#555555" points="995.98,-153.41 1003.99,-150.65 996,-147.81 995.98,-153.41"/>
</g>
<!-- pg -->
<g id="node7" class="node">
<title>pg</title>
<path fill="#eaf2f8" stroke="#555555" d="M1324.5,-172.05C1324.5,-174.51 1294.02,-176.5 1256.5,-176.5 1218.98,-176.5 1188.5,-174.51 1188.5,-172.05 1188.5,-172.05 1188.5,-131.95 1188.5,-131.95 1188.5,-129.49 1218.98,-127.5 1256.5,-127.5 1294.02,-127.5 1324.5,-129.49 1324.5,-131.95 1324.5,-131.95 1324.5,-172.05 1324.5,-172.05"/>
<path fill="none" stroke="#555555" d="M1324.5,-172.05C1324.5,-169.59 1294.02,-167.59 1256.5,-167.59 1218.98,-167.59 1188.5,-169.59 1188.5,-172.05"/>
<text text-anchor="middle" x="1256.5" y="-155.2" font-family="Arial" font-size="11.00">PostgreSQL + pgvector</text>
<text text-anchor="middle" x="1256.5" y="-143.2" font-family="Arial" font-size="11.00">active document_chunks</text>
</g>
<!-- retrieve&#45;&gt;pg -->
<g id="edge6" class="edge">
<title>retrieve&#45;&gt;pg</title>
<path fill="none" stroke="#555555" d="M1140.18,-138.29C1153.22,-137.89 1166.98,-137.89 1180.26,-138.27"/>
<polygon fill="#555555" stroke="#555555" points="1180.37,-141.08 1188.46,-138.56 1180.57,-135.48 1180.37,-141.08"/>
</g>
<!-- rerank -->
<g id="node8" class="node">
<title>rerank</title>
<path fill="#f8f9f9" stroke="#555555" d="M1314,-91C1314,-91 1199,-91 1199,-91 1193,-91 1187,-85 1187,-79 1187,-79 1187,-67 1187,-67 1187,-61 1193,-55 1199,-55 1199,-55 1314,-55 1314,-55 1320,-55 1326,-61 1326,-67 1326,-67 1326,-79 1326,-79 1326,-85 1320,-91 1314,-91"/>
<text text-anchor="middle" x="1256.5" y="-76.2" font-family="Arial" font-size="11.00">7. RerankPostProcessor</text>
<text text-anchor="middle" x="1256.5" y="-64.2" font-family="Arial" font-size="11.00">SimpleKeywordReranker</text>
</g>
<!-- retrieve&#45;&gt;rerank -->
<g id="edge8" class="edge">
<title>retrieve&#45;&gt;rerank</title>
<path fill="none" stroke="#555555" d="M1115.33,-132.91C1142.3,-121.38 1177.36,-106.4 1205.67,-94.3"/>
<polygon fill="#555555" stroke="#555555" points="1206.83,-96.85 1213.09,-91.13 1204.63,-91.7 1206.83,-96.85"/>
</g>
<!-- pg&#45;&gt;retrieve -->
<g id="edge7" class="edge">
<title>pg&#45;&gt;retrieve</title>
<path fill="none" stroke="#555555" d="M1188.46,-164.7C1175.42,-165.1 1161.67,-165.11 1148.38,-164.73"/>
<polygon fill="#555555" stroke="#555555" points="1148.27,-161.92 1140.18,-164.44 1148.08,-167.52 1148.27,-161.92"/>
</g>
<!-- limit -->
<g id="node9" class="node">
<title>limit</title>
<path fill="#f8f9f9" stroke="#555555" d="M1522,-91C1522,-91 1385,-91 1385,-91 1379,-91 1373,-85 1373,-79 1373,-79 1373,-67 1373,-67 1373,-61 1379,-55 1385,-55 1385,-55 1522,-55 1522,-55 1528,-55 1534,-61 1534,-67 1534,-67 1534,-79 1534,-79 1534,-85 1528,-91 1522,-91"/>
<text text-anchor="middle" x="1453.5" y="-76.2" font-family="Arial" font-size="11.00">8. LimitContextPostProcessor</text>
<text text-anchor="middle" x="1453.5" y="-64.2" font-family="Arial" font-size="11.00">max context chars</text>
</g>
<!-- rerank&#45;&gt;limit -->
<g id="edge9" class="edge">
<title>rerank&#45;&gt;limit</title>
<path fill="none" stroke="#555555" d="M1326.25,-73C1338.57,-73 1351.57,-73 1364.35,-73"/>
<polygon fill="#555555" stroke="#555555" points="1364.71,-75.8 1372.71,-73 1364.71,-70.2 1364.71,-75.8"/>
</g>
<!-- capture -->
<g id="node10" class="node">
<title>capture</title>
<path fill="#f8f9f9" stroke="#555555" d="M1685,-91C1685,-91 1593,-91 1593,-91 1587,-91 1581,-85 1581,-79 1581,-79 1581,-67 1581,-67 1581,-61 1587,-55 1593,-55 1593,-55 1685,-55 1685,-55 1691,-55 1697,-61 1697,-67 1697,-67 1697,-79 1697,-79 1697,-85 1691,-91 1685,-91"/>
<text text-anchor="middle" x="1639" y="-76.2" font-family="Arial" font-size="11.00">9. Capture sources</text>
<text text-anchor="middle" x="1639" y="-64.2" font-family="Arial" font-size="11.00">retrieved documents</text>
</g>
<!-- limit&#45;&gt;capture -->
<g id="edge10" class="edge">
<title>limit&#45;&gt;capture</title>
<path fill="none" stroke="#555555" d="M1534.19,-73C1547.04,-73 1560.21,-73 1572.68,-73"/>
<polygon fill="#555555" stroke="#555555" points="1572.75,-75.8 1580.75,-73 1572.75,-70.2 1572.75,-75.8"/>
</g>
<!-- llm -->
<g id="node11" class="node">
<title>llm</title>
<path fill="#f4ecf7" stroke="#555555" d="M1886,-54C1886,-54 1756,-54 1756,-54 1750,-54 1744,-48 1744,-42 1744,-42 1744,-30 1744,-30 1744,-24 1750,-18 1756,-18 1756,-18 1886,-18 1886,-18 1892,-18 1898,-24 1898,-30 1898,-30 1898,-42 1898,-42 1898,-48 1892,-54 1886,-54"/>
<text text-anchor="middle" x="1821" y="-39.2" font-family="Arial" font-size="11.00">10. OpenRouter / LLM</text>
<text text-anchor="middle" x="1821" y="-27.2" font-family="Arial" font-size="11.00">answer grounded by context</text>
</g>
<!-- capture&#45;&gt;llm -->
<g id="edge11" class="edge">
<title>capture&#45;&gt;llm</title>
<path fill="none" stroke="#555555" d="M1697.45,-61.19C1709.63,-58.69 1722.74,-55.99 1735.68,-53.33"/>
<polygon fill="#555555" stroke="#555555" points="1736.44,-56.03 1743.71,-51.68 1735.31,-50.55 1736.44,-56.03"/>
</g>
<!-- llm&#45;&gt;runtime -->
<g id="edge12" class="edge">
<title>llm&#45;&gt;runtime</title>
<path fill="none" stroke="#555555" d="M1743.91,-24.11C1670.13,-13.63 1554.93,0 1454.5,0 877,0 877,0 877,0 735.43,0 698.83,-7.68 561,-40 544.29,-43.92 526.5,-49.55 510.47,-55.19"/>
<polygon fill="#555555" stroke="#555555" points="509.33,-52.63 502.75,-57.96 511.22,-57.9 509.33,-52.63"/>
</g>
<!-- response -->
<g id="node13" class="node">
<title>response</title>
<path fill="#f8f9f9" stroke="#555555" d="M945,-94C945,-94 811,-94 811,-94 805,-94 799,-88 799,-82 799,-82 799,-70 799,-70 799,-64 805,-58 811,-58 811,-58 945,-58 945,-58 951,-58 957,-64 957,-70 957,-70 957,-82 957,-82 957,-88 951,-94 945,-94"/>
<text text-anchor="middle" x="878" y="-79.2" font-family="Arial" font-size="11.00">12. JSON response</text>
<text text-anchor="middle" x="878" y="-67.2" font-family="Arial" font-size="11.00">answer + sources + query_id</text>
</g>
<!-- logger&#45;&gt;response -->
<g id="edge14" class="edge">
<title>logger&#45;&gt;response</title>
<path fill="none" stroke="#555555" d="M752.18,-76C764.93,-76 777.97,-76 790.57,-76"/>
<polygon fill="#555555" stroke="#555555" points="790.78,-78.8 798.78,-76 790.78,-73.2 790.78,-78.8"/>
</g>
</g>
</svg>
