<?xml version="1.0" encoding="UTF-8" standalone="no"?>
<!DOCTYPE svg PUBLIC "-//W3C//DTD SVG 1.1//EN"
 "http://www.w3.org/Graphics/SVG/1.1/DTD/svg11.dtd">
<!-- Generated by graphviz version 2.42.4 (0)
 -->
<!-- Title: G Pages: 1 -->
<svg width="3019pt" height="277pt"
 viewBox="0.00 0.00 3018.60 276.60" xmlns="http://www.w3.org/2000/svg" xmlns:xlink="http://www.w3.org/1999/xlink">
<g id="graph0" class="graph" transform="scale(1 1) rotate(0) translate(28.8 247.8)">
<title>G</title>
<polygon fill="white" stroke="transparent" points="-28.8,28.8 -28.8,-247.8 2989.8,-247.8 2989.8,28.8 -28.8,28.8"/>
<text text-anchor="middle" x="1480.5" y="-197.4" font-family="Arial" font-size="22.00">Пайплайн индексации документа</text>
<!-- upload -->
<g id="node1" class="node">
<title>upload</title>
<path fill="#f8f9f9" stroke="#555555" d="M59,-39C59,-39 12,-39 12,-39 6,-39 0,-33 0,-27 0,-27 0,-15 0,-15 0,-9 6,-3 12,-3 12,-3 59,-3 59,-3 65,-3 71,-9 71,-15 71,-15 71,-27 71,-27 71,-33 65,-39 59,-39"/>
<text text-anchor="middle" x="35.5" y="-24.2" font-family="Arial" font-size="11.00">1. Upload</text>
<text text-anchor="middle" x="35.5" y="-12.2" font-family="Arial" font-size="11.00">.md / .docx</text>
</g>
<!-- validate -->
<g id="node2" class="node">
<title>validate</title>
<path fill="#f8f9f9" stroke="#555555" d="M204,-39C204,-39 132,-39 132,-39 126,-39 120,-33 120,-27 120,-27 120,-15 120,-15 120,-9 126,-3 132,-3 132,-3 204,-3 204,-3 210,-3 216,-9 216,-15 216,-15 216,-27 216,-27 216,-33 210,-39 204,-39"/>
<text text-anchor="middle" x="168" y="-24.2" font-family="Arial" font-size="11.00">2. Валидация</text>
<text text-anchor="middle" x="168" y="-12.2" font-family="Arial" font-size="11.00">extension + size</text>
</g>
<!-- upload&#45;&gt;validate -->
<g id="edge1" class="edge">
<title>upload&#45;&gt;validate</title>
<path fill="none" stroke="#555555" d="M71.13,-21C83.63,-21 98.06,-21 111.88,-21"/>
<polygon fill="#555555" stroke="#555555" points="111.92,-23.8 119.92,-21 111.92,-18.2 111.92,-23.8"/>
</g>
<!-- import -->
<g id="node3" class="node">
<title>import</title>
<path fill="#f8f9f9" stroke="#555555" d="M400,-39C400,-39 277,-39 277,-39 271,-39 265,-33 265,-27 265,-27 265,-15 265,-15 265,-9 271,-3 277,-3 277,-3 400,-3 400,-3 406,-3 412,-9 412,-15 412,-15 412,-27 412,-27 412,-33 406,-39 400,-39"/>
<text text-anchor="middle" x="338.5" y="-24.2" font-family="Arial" font-size="11.00">3. DocumentImportService</text>
<text text-anchor="middle" x="338.5" y="-12.2" font-family="Arial" font-size="11.00">Storage + documents row</text>
</g>
<!-- validate&#45;&gt;import -->
<g id="edge2" class="edge">
<title>validate&#45;&gt;import</title>
<path fill="none" stroke="#555555" d="M216.39,-21C229,-21 242.98,-21 256.84,-21"/>
<polygon fill="#555555" stroke="#555555" points="256.97,-23.8 264.97,-21 256.97,-18.2 256.97,-23.8"/>
</g>
<!-- queue -->
<g id="node4" class="node">
<title>queue</title>
<path fill="#f8f9f9" stroke="#555555" d="M585,-39C585,-39 473,-39 473,-39 467,-39 461,-33 461,-27 461,-27 461,-15 461,-15 461,-9 467,-3 473,-3 473,-3 585,-3 585,-3 591,-3 597,-9 597,-15 597,-15 597,-27 597,-27 597,-33 591,-39 585,-39"/>
<text text-anchor="middle" x="529" y="-24.2" font-family="Arial" font-size="11.00">4. ProcessDocumentJob</text>
<text text-anchor="middle" x="529" y="-12.2" font-family="Arial" font-size="11.00">ShouldQueue</text>
</g>
<!-- import&#45;&gt;queue -->
<g id="edge3" class="edge">
<title>import&#45;&gt;queue</title>
<path fill="none" stroke="#555555" d="M412.11,-21C425.42,-21 439.34,-21 452.73,-21"/>
<polygon fill="#555555" stroke="#555555" points="452.99,-23.8 460.99,-21 452.99,-18.2 452.99,-23.8"/>
</g>
<!-- status_processing -->
<g id="node5" class="node">
<title>status_processing</title>
<path fill="#f8f9f9" stroke="#555555" d="M758,-39C758,-39 658,-39 658,-39 652,-39 646,-33 646,-27 646,-27 646,-15 646,-15 646,-9 652,-3 658,-3 658,-3 758,-3 758,-3 764,-3 770,-9 770,-15 770,-15 770,-27 770,-27 770,-33 764,-39 758,-39"/>
<text text-anchor="middle" x="708" y="-18.2" font-family="Arial" font-size="11.00">5. status = processing</text>
</g>
<!-- queue&#45;&gt;status_processing -->
<g id="edge4" class="edge">
<title>queue&#45;&gt;status_processing</title>
<path fill="none" stroke="#555555" d="M597.17,-21C610.45,-21 624.41,-21 637.76,-21"/>
<polygon fill="#555555" stroke="#555555" points="637.98,-23.8 645.98,-21 637.98,-18.2 637.98,-23.8"/>
</g>
<!-- extract -->
<g id="node6" class="node">
<title>extract</title>
<path fill="#f8f9f9" stroke="#555555" d="M1036,-39C1036,-39 831,-39 831,-39 825,-39 819,-33 819,-27 819,-27 819,-15 819,-15 819,-9 825,-3 831,-3 831,-3 1036,-3 1036,-3 1042,-3 1048,-9 1048,-15 1048,-15 1048,-27 1048,-27 1048,-33 1042,-39 1036,-39"/>
<text text-anchor="middle" x="933.5" y="-24.2" font-family="Arial" font-size="11.00">6. TextExtractorFactory</text>
<text text-anchor="middle" x="933.5" y="-12.2" font-family="Arial" font-size="11.00">MarkdownTextExtractor / DocxTextExtractor</text>
</g>
<!-- status_processing&#45;&gt;extract -->
<g id="edge5" class="edge">
<title>status_processing&#45;&gt;extract</title>
<path fill="none" stroke="#555555" d="M770.07,-21C782.71,-21 796.45,-21 810.41,-21"/>
<polygon fill="#555555" stroke="#555555" points="810.64,-23.8 818.64,-21 810.64,-18.2 810.64,-23.8"/>
</g>
<!-- sanitize -->
<g id="node7" class="node">
<title>sanitize</title>
<path fill="#f8f9f9" stroke="#555555" d="M1213,-91C1213,-91 1109,-91 1109,-91 1103,-91 1097,-85 1097,-79 1097,-79 1097,-67 1097,-67 1097,-61 1103,-55 1109,-55 1109,-55 1213,-55 1213,-55 1219,-55 1225,-61 1225,-67 1225,-67 1225,-79 1225,-79 1225,-85 1219,-91 1213,-91"/>
<text text-anchor="middle" x="1161" y="-76.2" font-family="Arial" font-size="11.00">7. RagTextSanitizer</text>
<text text-anchor="middle" x="1161" y="-64.2" font-family="Arial" font-size="11.00">нормализация текста</text>
</g>
<!-- extract&#45;&gt;sanitize -->
<g id="edge6" class="edge">
<title>extract&#45;&gt;sanitize</title>
<path fill="none" stroke="#555555" d="M1012.74,-39.04C1037.42,-44.73 1064.55,-50.99 1088.72,-56.56"/>
<polygon fill="#555555" stroke="#555555" points="1088.38,-59.36 1096.8,-58.43 1089.64,-53.9 1088.38,-59.36"/>
</g>
<!-- failed -->
<g id="node16" class="node">
<title>failed</title>
<path fill="#fadbd8" stroke="#555555" d="M2937,-92C2937,-92 2870,-92 2870,-92 2864,-92 2858,-86 2858,-80 2858,-80 2858,-68 2858,-68 2858,-62 2864,-56 2870,-56 2870,-56 2937,-56 2937,-56 2943,-56 2949,-62 2949,-68 2949,-68 2949,-80 2949,-80 2949,-86 2943,-92 2937,-92"/>
<text text-anchor="middle" x="2903.5" y="-77.2" font-family="Arial" font-size="11.00">failed</text>
<text text-anchor="middle" x="2903.5" y="-65.2" font-family="Arial" font-size="11.00">error_message</text>
</g>
<!-- extract&#45;&gt;failed -->
<g id="edge15" class="edge">
<title>extract&#45;&gt;failed</title>
<path fill="none" stroke="#555555" stroke-dasharray="5,2" d="M1048.16,-6.27C1083.89,-2.76 1123.53,0 1160,0 1160,0 1160,0 2664.5,0 2735.62,0 2813.51,-30.5 2860.17,-52.34"/>
<polygon fill="#555555" stroke="#555555" points="2859.24,-54.99 2867.67,-55.9 2861.64,-49.94 2859.24,-54.99"/>
<text text-anchor="middle" x="1891.5" y="-3" font-family="Arial" font-size="10.00">exception</text>
</g>
<!-- version -->
<g id="node8" class="node">
<title>version</title>
<path fill="#f8f9f9" stroke="#555555" d="M1392,-91C1392,-91 1286,-91 1286,-91 1280,-91 1274,-85 1274,-79 1274,-79 1274,-67 1274,-67 1274,-61 1280,-55 1286,-55 1286,-55 1392,-55 1392,-55 1398,-55 1404,-61 1404,-67 1404,-67 1404,-79 1404,-79 1404,-85 1398,-91 1392,-91"/>
<text text-anchor="middle" x="1339" y="-76.2" font-family="Arial" font-size="11.00">8. DocumentVersion</text>
<text text-anchor="middle" x="1339" y="-64.2" font-family="Arial" font-size="11.00">sha256 normalized text</text>
</g>
<!-- sanitize&#45;&gt;version -->
<g id="edge7" class="edge">
<title>sanitize&#45;&gt;version</title>
<path fill="none" stroke="#555555" d="M1225.04,-73C1238.19,-73 1252.16,-73 1265.61,-73"/>
<polygon fill="#555555" stroke="#555555" points="1265.92,-75.8 1273.92,-73 1265.92,-70.2 1265.92,-75.8"/>
</g>
<!-- chunk -->
<g id="node9" class="node">
<title>chunk</title>
<path fill="#f8f9f9" stroke="#555555" d="M1598,-91C1598,-91 1465,-91 1465,-91 1459,-91 1453,-85 1453,-79 1453,-79 1453,-67 1453,-67 1453,-61 1459,-55 1465,-55 1465,-55 1598,-55 1598,-55 1604,-55 1610,-61 1610,-67 1610,-67 1610,-79 1610,-79 1610,-85 1604,-91 1598,-91"/>
<text text-anchor="middle" x="1531.5" y="-76.2" font-family="Arial" font-size="11.00">9. Chunking</text>
<text text-anchor="middle" x="1531.5" y="-64.2" font-family="Arial" font-size="11.00">MarkdownAware / Recursive</text>
</g>
<!-- version&#45;&gt;chunk -->
<g id="edge8" class="edge">
<title>version&#45;&gt;chunk</title>
<path fill="none" stroke="#555555" d="M1404.23,-73C1417.11,-73 1430.84,-73 1444.33,-73"/>
<polygon fill="#555555" stroke="#555555" points="1444.68,-75.8 1452.68,-73 1444.68,-70.2 1444.68,-75.8"/>
</g>
<!-- enrich -->
<g id="node10" class="node">
<title>enrich</title>
<path fill="#f8f9f9" stroke="#555555" d="M1834,-91C1834,-91 1671,-91 1671,-91 1665,-91 1659,-85 1659,-79 1659,-79 1659,-67 1659,-67 1659,-61 1665,-55 1671,-55 1671,-55 1834,-55 1834,-55 1840,-55 1846,-61 1846,-67 1846,-67 1846,-79 1846,-79 1846,-85 1840,-91 1834,-91"/>
<text text-anchor="middle" x="1752.5" y="-76.2" font-family="Arial" font-size="11.00">10. MetadataEnricher</text>
<text text-anchor="middle" x="1752.5" y="-64.2" font-family="Arial" font-size="11.00">document_id, section, hash, tokens</text>
</g>
<!-- chunk&#45;&gt;enrich -->
<g id="edge9" class="edge">
<title>chunk&#45;&gt;enrich</title>
<path fill="none" stroke="#555555" d="M1610.02,-73C1623.19,-73 1637.03,-73 1650.69,-73"/>
<polygon fill="#555555" stroke="#555555" points="1650.7,-75.8 1658.7,-73 1650.7,-70.2 1650.7,-75.8"/>
</g>
<!-- filter -->
<g id="node11" class="node">
<title>filter</title>
<path fill="#f8f9f9" stroke="#555555" d="M2082,-91C2082,-91 1949,-91 1949,-91 1943,-91 1937,-85 1937,-79 1937,-79 1937,-67 1937,-67 1937,-61 1943,-55 1949,-55 1949,-55 2082,-55 2082,-55 2088,-55 2094,-61 2094,-67 2094,-67 2094,-79 2094,-79 2094,-85 2088,-91 2082,-91"/>
<text text-anchor="middle" x="2015.5" y="-76.2" font-family="Arial" font-size="11.00">11. ChunkFilter</text>
<text text-anchor="middle" x="2015.5" y="-64.2" font-family="Arial" font-size="11.00">короткие, дубли, references</text>
</g>
<!-- enrich&#45;&gt;filter -->
<g id="edge10" class="edge">
<title>enrich&#45;&gt;filter</title>
<path fill="none" stroke="#555555" d="M1846.25,-73C1873.08,-73 1902.23,-73 1928.61,-73"/>
<polygon fill="#555555" stroke="#555555" points="1928.71,-75.8 1936.7,-73 1928.7,-70.2 1928.71,-75.8"/>
</g>
<!-- embed -->
<g id="node12" class="node">
<title>embed</title>
<path fill="#f8f9f9" stroke="#555555" d="M2268,-92C2268,-92 2155,-92 2155,-92 2149,-92 2143,-86 2143,-80 2143,-80 2143,-68 2143,-68 2143,-62 2149,-56 2155,-56 2155,-56 2268,-56 2268,-56 2274,-56 2280,-62 2280,-68 2280,-68 2280,-80 2280,-80 2280,-86 2274,-92 2268,-92"/>
<text text-anchor="middle" x="2211.5" y="-77.2" font-family="Arial" font-size="11.00">12. EmbeddingsProvider</text>
<text text-anchor="middle" x="2211.5" y="-65.2" font-family="Arial" font-size="11.00">embedDocuments</text>
</g>
<!-- filter&#45;&gt;embed -->
<g id="edge11" class="edge">
<title>filter&#45;&gt;embed</title>
<path fill="none" stroke="#555555" d="M2094.01,-73.4C2107.38,-73.47 2121.27,-73.54 2134.6,-73.61"/>
<polygon fill="#555555" stroke="#555555" points="2134.8,-76.41 2142.82,-73.65 2134.83,-70.81 2134.8,-76.41"/>
</g>
<!-- deactivate -->
<g id="node13" class="node">
<title>deactivate</title>
<path fill="#f8f9f9" stroke="#555555" d="M2469,-165C2469,-165 2341,-165 2341,-165 2335,-165 2329,-159 2329,-153 2329,-153 2329,-141 2329,-141 2329,-135 2335,-129 2341,-129 2341,-129 2469,-129 2469,-129 2475,-129 2481,-135 2481,-141 2481,-141 2481,-153 2481,-153 2481,-159 2475,-165 2469,-165"/>
<text text-anchor="middle" x="2405" y="-150.2" font-family="Arial" font-size="11.00">13. PgVectorStore.deleteBy</text>
<text text-anchor="middle" x="2405" y="-138.2" font-family="Arial" font-size="11.00">старые чанки inactive</text>
</g>
<!-- embed&#45;&gt;deactivate -->
<g id="edge12" class="edge">
<title>embed&#45;&gt;deactivate</title>
<path fill="none" stroke="#555555" d="M2259.84,-92.04C2286.77,-102.31 2320.63,-115.22 2348.77,-125.95"/>
<polygon fill="#555555" stroke="#555555" points="2348.07,-128.68 2356.54,-128.91 2350.07,-123.44 2348.07,-128.68"/>
</g>
<!-- embed&#45;&gt;failed -->
<g id="edge16" class="edge">
<title>embed&#45;&gt;failed</title>
<path fill="none" stroke="#555555" stroke-dasharray="5,2" d="M2280.23,-74C2417.48,-74 2725.86,-74 2849.62,-74"/>
<polygon fill="#555555" stroke="#555555" points="2849.86,-76.8 2857.86,-74 2849.86,-71.2 2849.86,-76.8"/>
<text text-anchor="middle" x="2526.5" y="-77" font-family="Arial" font-size="10.00">exception</text>
</g>
<!-- persist -->
<g id="node14" class="node">
<title>persist</title>
<path fill="#f8f9f9" stroke="#555555" d="M2743,-165C2743,-165 2584,-165 2584,-165 2578,-165 2572,-159 2572,-153 2572,-153 2572,-141 2572,-141 2572,-135 2578,-129 2584,-129 2584,-129 2743,-129 2743,-129 2749,-129 2755,-135 2755,-141 2755,-141 2755,-153 2755,-153 2755,-159 2749,-165 2743,-165"/>
<text text-anchor="middle" x="2663.5" y="-150.2" font-family="Arial" font-size="11.00">14. PgVectorStore.addDocuments</text>
<text text-anchor="middle" x="2663.5" y="-138.2" font-family="Arial" font-size="11.00">document_chunks + embedding</text>
</g>
<!-- deactivate&#45;&gt;persist -->
<g id="edge13" class="edge">
<title>deactivate&#45;&gt;persist</title>
<path fill="none" stroke="#555555" d="M2481.23,-147C2507.06,-147 2536.37,-147 2563.79,-147"/>
<polygon fill="#555555" stroke="#555555" points="2563.84,-149.8 2571.84,-147 2563.84,-144.2 2563.84,-149.8"/>
</g>
<!-- done -->
<g id="node15" class="node">
<title>done</title>
<path fill="#f8f9f9" stroke="#555555" d="M2949,-187C2949,-187 2858,-187 2858,-187 2852,-187 2846,-181 2846,-175 2846,-175 2846,-163 2846,-163 2846,-157 2852,-151 2858,-151 2858,-151 2949,-151 2949,-151 2955,-151 2961,-157 2961,-163 2961,-163 2961,-175 2961,-175 2961,-181 2955,-187 2949,-187"/>
<text text-anchor="middle" x="2903.5" y="-166.2" font-family="Arial" font-size="11.00">15. status = indexed</text>
</g>
<!-- persist&#45;&gt;done -->
<g id="edge14" class="edge">
<title>persist&#45;&gt;done</title>
<path fill="none" stroke="#555555" d="M2755.16,-155.38C2782.66,-157.92 2812.3,-160.66 2837.74,-163.01"/>
<polygon fill="#555555" stroke="#555555" points="2837.62,-165.81 2845.84,-163.76 2838.13,-160.24 2837.62,-165.81"/>
</g>
<!-- persist&#45;&gt;failed -->
<g id="edge17" class="edge">
<title>persist&#45;&gt;failed</title>
<path fill="none" stroke="#555555" stroke-dasharray="5,2" d="M2723.33,-128.96C2762.14,-117.05 2812.54,-101.59 2849.99,-90.1"/>
<polygon fill="#555555" stroke="#555555" points="2850.95,-92.74 2857.78,-87.72 2849.31,-87.39 2850.95,-92.74"/>
<text text-anchor="middle" x="2800.5" y="-113" font-family="Arial" font-size="10.00">exception</text>
</g>
</g>
</svg>
